<?xml version="1.0" encoding="UTF-8"?>
<svg id="uuid-ac33fbe8-51ee-46e4-bba8-43d0c612d835" data-name="レイヤー 1" xmlns="http://www.w3.org/2000/svg" width="193" height="80" viewBox="0 0 193 80">
  <defs>
    <style>
      .uuid-3ddbe672-7a59-4d85-bfdf-44cc03fab8d0 {
        fill: #fff;
      }
    </style>
  </defs>
  <path class="uuid-3ddbe672-7a59-4d85-bfdf-44cc03fab8d0" d="M30.64,53.79l-15.15-7.4c-3.86,5.28-6.02,8.76-6.47,10.45-.32,1.21-1.04,2.22-2.15,3.04-1.11.82-1.91,1.23-2.39,1.23-1.37,0-2.05-.52-2.05-1.57,0-.59.81-2.28,2.43-5.08,1.62-2.8,3.85-6.1,6.69-9.91-1.58-.64-2.56-1.07-2.93-1.29-.38-.21-.52-.62-.44-1.23.08-.6.55-1.55,1.41-2.83.75-1.12,1.31-1.88,1.69-2.27.38-.39.82-.7,1.33-.92.51-.23,1.04-.38,1.61-.46.56-.08,2.14-.28,4.74-.6,2.12-2.87,4.41-5.96,6.89-9.29,2.48-3.32,4.41-5.91,5.81-7.76-4.21.56-7.14,1.03-8.8,1.41-1.77.35-3.25.64-4.44.86-1.19.23-2.03.43-2.51.6-.48.17-.72.42-.72.74,0,.29.29.5.88.6.59.11,1.33.16,2.23.16s1.59.03,2.09.1c.5.07.74.22.74.46,0,.27-.33.42-.98.46s-2.5.13-5.53.26c-1.72.05-3.16.11-4.32.16-1.17.05-1.98.08-2.43.08-.62,0-1.1-.19-1.45-.56-.35-.38-.52-.87-.52-1.49,0-.46.25-1.3.76-2.53.51-1.23,1.23-2.48,2.17-3.74.94-1.26,2.01-2.24,3.22-2.93,1.37-.83,3.49-1.67,6.37-2.51,2.88-.84,6.08-1.53,9.61-2.05,3.52-.52,7.01-.78,10.47-.78,2.09,0,4.13.12,6.13.36,2,.24,3.8.54,5.43.88,1.62.35,2.9.7,3.84,1.04,2.44.8,4.31,2.02,5.61,3.66,1.3,1.63,1.95,3.43,1.95,5.39s-.33,3.76-.98,5.57c-.66,1.81-1.66,3.48-3.01,5.02-1.35,1.54-2.98,2.79-4.88,3.76-1.55.8-3.91,1.62-7.07,2.45-3.16.83-6.98,1.57-11.46,2.21-4.48.64-9.47,1.11-14.99,1.41,4.13,1.45,7.98,2.9,11.56,4.36,3.58,1.46,6.59,2.76,9.04,3.9,2.45,1.14,4.37,2.07,5.77,2.79,1.96,1.02,3.23,1.76,3.82,2.21.59.46.98,1.04,1.17,1.77.19.72.28,1.92.28,3.58,0,1.88-.11,3.26-.34,4.16-.23.9-.72,1.35-1.47,1.35-.24,0-.88-.26-1.91-.78-1.03-.52-2.46-1.29-4.28-2.29-1.82-1-3.48-1.9-4.96-2.69-1.49-.79-3.84-1.96-7.05-3.52ZM34.18,17.49c.03.19.05.36.06.52.01.16.02.39.02.68,0,.75-.23,1.62-.7,2.59-.47.98-1.07,1.98-1.81,3.01-.74,1.03-1.84,2.51-3.3,4.42-1.46,1.92-2.81,3.68-4.04,5.29,5.63-1.07,10.43-2.1,14.41-3.09,3.98-.99,7.26-1.99,9.83-3s4.51-2.06,5.81-3.17c1.3-1.11,1.95-2.27,1.95-3.48,0-1.34-1.36-2.39-4.08-3.16-2.72-.76-6.05-1.15-9.99-1.15-.8,0-1.65.02-2.55.06-.9.04-1.97.12-3.22.24-1.25.12-2.04.2-2.39.22Z"/>
  <path class="uuid-3ddbe672-7a59-4d85-bfdf-44cc03fab8d0" d="M58.78,37.63c4.07-3.7,8.03-6.44,11.86-8.24,3.83-1.79,6.79-2.69,8.88-2.69.56,0,1.09.24,1.57.7.48.47.86,1.01,1.15,1.63.28.62.42,1.07.42,1.37,0,.48-.19.84-.56,1.06-.38.23-1.03.5-1.97.82.19.43.43.98.72,1.65.29.67.52,1.21.68,1.63.16.42.24.78.24,1.1,0,.64-.65,1.84-1.95,3.6-1.3,1.76-2.21,3.05-2.73,3.88-.52.83-.78,1.85-.78,3.05,0,1.98.91,2.97,2.73,2.97s4.81-1.75,8.8-5.27v2.45c-6.78,7.53-11.63,11.29-14.55,11.29-1.04,0-1.79-.34-2.23-1.03-.44-.68-.66-1.69-.66-3.03,0-2.12.76-5.19,2.29-9.21-3.91,4.34-6.82,7.43-8.72,9.26-1.9,1.84-3.47,2.75-4.7,2.75-.59,0-1.33-.51-2.21-1.53s-1.67-2.34-2.35-3.96c-.68-1.62-1.02-3.3-1.02-5.04,0-1.26.12-2.31.36-3.16s.71-1.71,1.41-2.59c.7-.88,1.81-2.05,3.34-3.5ZM78.03,33.21c-6.97,3.19-11.93,5.9-14.89,8.12-2.96,2.22-4.44,4.52-4.44,6.87,0,.86.15,1.56.44,2.11.29.55.7.82,1.21.82.29,0,.82-.19,1.57-.56,2.81-1.66,5.39-3.83,7.72-6.49s5.13-6.29,8.4-10.87Z"/>
  <path class="uuid-3ddbe672-7a59-4d85-bfdf-44cc03fab8d0" d="M114.08,44.9v2.61c-2.79,1.77-4.98,2.65-6.59,2.65-.88,0-1.82-.15-2.81-.44-2.41,3.05-4.48,5.29-6.21,6.71s-3.46,2.13-5.21,2.13c-2.01,0-3.56-1.06-4.64-3.17-1.08-2.12-1.63-4.74-1.63-7.88,0-4.26,1.29-8.9,3.86-13.93,2.57-5.02,5.67-9.73,9.3-14.11,3.63-4.38,7.15-8,10.55-10.87,3.4-2.87,5.71-4.3,6.91-4.3s1.73.79,1.73,2.37c0,7.02-9,19.27-27.01,36.74-.05.48-.08,1.43-.08,2.85,0,3.7.99,5.55,2.97,5.55.78,0,1.56-.32,2.35-.95.79-.63,2-1.83,3.64-3.6-.64-1.45-.96-2.52-.96-3.22,0-1.47.6-3.07,1.81-4.78,1.21-1.71,2.58-3.2,4.12-4.44,1.54-1.25,2.66-1.87,3.36-1.87,1.1,0,1.65.79,1.65,2.37,0,1.21-.32,2.65-.94,4.34-.63,1.69-1.55,3.62-2.75,5.79.46.38.82.65,1.09.82.27.17.67.26,1.21.26,1.23,0,2.67-.55,4.3-1.65ZM93.67,38.87c1.39-1.21,2.79-2.63,4.2-4.28,1.41-1.65,3.46-4.17,6.17-7.58,2.6-3.27,4.64-6,6.13-8.18,1.49-2.18,2.61-4,3.36-5.45.75-1.45,1.13-2.44,1.13-2.97,0-.4-.11-.6-.32-.6-.59,0-1.82.97-3.68,2.91-1.86,1.94-3.99,4.6-6.37,7.98-3.3,4.66-5.68,8.17-7.15,10.53-1.47,2.36-2.63,4.9-3.46,7.64Z"/>
  <path class="uuid-3ddbe672-7a59-4d85-bfdf-44cc03fab8d0" d="M140.69,44.9v2.61c-2.79,1.77-4.98,2.65-6.59,2.65-.88,0-1.82-.15-2.81-.44-2.41,3.05-4.48,5.29-6.21,6.71s-3.46,2.13-5.21,2.13c-2.01,0-3.56-1.06-4.64-3.17-1.08-2.12-1.63-4.74-1.63-7.88,0-4.26,1.29-8.9,3.86-13.93,2.57-5.02,5.67-9.73,9.3-14.11,3.63-4.38,7.15-8,10.55-10.87,3.4-2.87,5.71-4.3,6.91-4.3s1.73.79,1.73,2.37c0,7.02-9,19.27-27.01,36.74-.05.48-.08,1.43-.08,2.85,0,3.7.99,5.55,2.97,5.55.78,0,1.56-.32,2.35-.95.79-.63,2-1.83,3.64-3.6-.64-1.45-.96-2.52-.96-3.22,0-1.47.6-3.07,1.81-4.78,1.21-1.71,2.58-3.2,4.12-4.44,1.54-1.25,2.66-1.87,3.36-1.87,1.1,0,1.65.79,1.65,2.37,0,1.21-.32,2.65-.94,4.34-.63,1.69-1.55,3.62-2.75,5.79.46.38.82.65,1.09.82.27.17.67.26,1.21.26,1.23,0,2.67-.55,4.3-1.65ZM120.27,38.87c1.39-1.21,2.79-2.63,4.2-4.28,1.41-1.65,3.46-4.17,6.17-7.58,2.6-3.27,4.64-6,6.13-8.18,1.49-2.18,2.61-4,3.36-5.45.75-1.45,1.13-2.44,1.13-2.97,0-.4-.11-.6-.32-.6-.59,0-1.82.97-3.68,2.91-1.86,1.94-3.99,4.6-6.37,7.98-3.3,4.66-5.68,8.17-7.15,10.53-1.47,2.36-2.63,4.9-3.46,7.64Z"/>
  <path class="uuid-3ddbe672-7a59-4d85-bfdf-44cc03fab8d0" d="M159.91,44.82v2.93c-2.6,3.35-5.02,5.88-7.28,7.58-2.25,1.7-4.17,2.55-5.75,2.55-2.2,0-3.83-1.15-4.9-3.46s-1.61-4.82-1.61-7.56c0-1.04.11-2.04.32-2.99.21-.95.47-1.74.76-2.35.29-.62.84-1.58,1.65-2.89,3.8-5.92,7.29-8.88,10.45-8.88,1.63,0,2.45.63,2.45,1.89,0,.86-.53,2.2-1.59,4.02-1.06,1.82-2,3.12-2.83,3.9-2.33,2.25-3.85,3.82-4.56,4.7-.71.88-1.06,1.89-1.06,3.01,0,.96.36,1.77,1.08,2.41.72.64,1.66.96,2.81.96,1.26,0,2.65-.46,4.16-1.39,1.51-.92,3.48-2.4,5.89-4.44ZM157.17,26.86c-.67,0-1.31-.25-1.91-.76s-.9-1.15-.9-1.93c0-1.18.56-2.49,1.69-3.94,1.13-1.45,2.29-2.17,3.5-2.17.8,0,1.47.25,2.01.74.54.5.8,1.21.8,2.15,0,1.15-.55,2.43-1.65,3.82-1.1,1.39-2.28,2.09-3.54,2.09Z"/>
  <path class="uuid-3ddbe672-7a59-4d85-bfdf-44cc03fab8d0" d="M178.07,46.39l-7.15,6.07c-3.4,2.97-5.68,4.46-6.83,4.46-1.04,0-2.14-1.2-3.3-3.6-1.15-2.4-1.73-4.5-1.73-6.29,0-1.53.23-2.82.7-3.88.47-1.06,1.28-2.43,2.43-4.12,1.63-2.28,3.2-4.21,4.7-5.79,1.5-1.58,2.83-2.81,3.98-3.68,1.15-.87,1.96-1.31,2.41-1.31.72,0,1.43.38,2.11,1.13.68.75,1.03,1.53,1.03,2.33,0,.51-.37,1.33-1.11,2.45-.74,1.12-1.9,2.55-3.5,4.28-1.59,1.73-3.81,3.8-6.65,6.21l-.76,2.21c-.21.43-.32.8-.32,1.13,0,.72.36,1.08,1.09,1.08s2.51-.95,5.29-2.85,5.78-4.46,9.02-7.68c1.26-1.26,2.3-2.37,3.13-3.34s1.58-1.87,2.25-2.71c.67-.84,1.23-1.48,1.67-1.91.44-.43.84-.66,1.19-.68.67-.08,1.19.2,1.57.84.38.64.56,1.59.56,2.85,0,.72-.32,1.63-.96,2.71-.64,1.08-1.85,2.93-3.62,5.55-1.77,2.61-3.53,5.32-5.29,8.12-1.76,2.8-3.54,5.96-5.37,9.47.08-.08.9-.88,2.47-2.41,1.57-1.53,3.22-3.12,4.96-4.78,1.74-1.66,3.18-2.99,4.3-4s2.53-2.18,4.22-3.52v2.69c-3.62,3.89-6.89,7.57-9.83,11.05-2.93,3.48-5.2,6.27-6.79,8.36-1.59,2.09-2.53,3.31-2.79,3.66-.72.94-1.37,1.82-1.95,2.63s-1.06,1.45-1.45,1.89c-.39.44-.7.66-.94.66-.56,0-1.07-.56-1.51-1.67-.44-1.11-.66-2.1-.66-2.95,0-.78.15-1.46.44-2.05,1.93-4.34,6.26-11.88,12.98-22.63Z"/>
</svg>